# xmcd
#
# Track frame offsets: 
#        150
#        14643
#        26623
#        44177
#        61711
#        76037
#        90356
#        99928
#        115848
#        130148
#        138193
#        153934
#        168251
#        179467
#        192084
#        206293
#        214627
#        230489
#        249438
#        269994
#
# Disc length: 3882 seconds
#
# Revision: 0
# Processed by: cddbd v1.5.2PL0 Copyright (c) Steve Scherf et al.
# Submitted via: ExactAudioCopy v0.95a5
#
DISCID=070f2814
DTITLE=Visionary - Visionary - ATM Mix
DYEAR=2006
DGENRE=Drum and Bass
TTITLE0=Kenny Ken - Murda You (Benny Page Remix)
TTITLE1=Visionary Feat King - Dub Rock Sound
TTITLE2=Division One - You Cant Surrender
TTITLE3=Visionary - Gimme Your Love VIP
TTITLE4=Benny Page - Rub A Dub
TTITLE5=Visionary Feat Peter Ranking - Soundboy Burial
TTITLE6=Benny Page - Babylon
TTITLE7=Benny Page - Turn Down the Lights
TTITLE8=Division One - Retreat
TTITLE9=Unknown - Truly
TTITLE10=Visionary Feat Peter Ranking - Jungle Rock
TTITLE11=Phantasy and Shodan Feat YT - England Story
TTITLE12=Aries - Herbsmoke (Visionary Remix)
TTITLE13=Benny Page - Cant Test
TTITLE14=Shy FX Feat T Power - Feelings
TTITLE15=Shy FX - Pastic Soul
TTITLE16=Bassface Sascha and Franksen - I Really Love You
TTITLE17=Visionary - A Place in the Sun
TTITLE18=Breakage - Forgot the Name
TTITLE19=Visionary - Temptation
EXTD=
EXTT0=
EXTT1=
EXTT2=
EXTT3=
EXTT4=
EXTT5=
EXTT6=
EXTT7=
EXTT8=
EXTT9=
EXTT10=
EXTT11=
EXTT12=
EXTT13=
EXTT14=
EXTT15=
EXTT16=
EXTT17=
EXTT18=
EXTT19=
PLAYORDER=
